<svg width="36" height="36" viewBox="0 0 36 36" fill="none" xmlns="http://www.w3.org/2000/svg">
<g filter="url(#filter0_d_15_59)">
<path fill-rule="evenodd" clip-rule="evenodd" d="M18.1887 4.6789C11.3417 4.6789 5.79861 10.3658 5.79861 17.3693C5.79861 22.5117 8.78729 26.9369 13.0888 28.9274C13.5389 29.1361 13.9787 29.0533 14.3225 28.7875C14.5126 28.6348 14.6659 28.4388 14.7702 28.2149C14.8746 27.9909 14.9273 27.7451 14.9241 27.4966V26.832L13.3896 26.6174C13.3782 26.6158 13.3669 26.6139 13.3557 26.6116C12.5098 26.4413 11.9388 26.1346 11.5204 25.6927C11.1687 25.3207 10.9539 24.8753 10.7718 24.4975L10.7085 24.3657C10.5402 24.0038 10.3565 23.6497 10.1578 23.3046C10.0052 23.055 9.88642 22.9268 9.76882 22.8463C9.47029 22.6423 9.18307 22.2959 9.18307 21.8633C9.18205 21.7388 9.2079 21.6156 9.25875 21.5027C9.3096 21.3897 9.38417 21.2899 9.47707 21.2103C9.65241 21.0672 9.87092 20.9921 10.0945 20.9981C10.3455 20.9981 10.5819 21.0774 10.7786 21.1683C10.9799 21.2616 11.18 21.3852 11.3666 21.5135C11.8212 21.826 12.269 22.1957 12.6478 22.6516C13.0425 23.125 13.3218 23.4259 13.7424 23.4877C14.0884 23.539 14.4412 23.5401 14.716 23.5273C14.7542 23.303 14.8172 23.0839 14.9037 22.8743C14.5681 22.7935 14.2371 22.6939 13.912 22.5758C13.1725 22.3053 12.3481 21.8843 11.7941 21.2465C11.1857 20.5445 10.8091 19.9183 10.5988 19.186C10.3941 18.4724 10.3602 17.6993 10.3602 16.7478C10.3602 15.2902 10.972 14.0623 11.4311 13.4105C11.2547 12.8398 11.1279 12.254 11.0523 11.6602C11.0022 11.2857 11.0025 10.9058 11.0534 10.5314C11.1099 10.1898 11.2513 9.76998 11.6233 9.51694C11.9818 9.2709 12.4024 9.28139 12.7304 9.34436C13.0707 9.41083 13.4247 9.55659 13.7503 9.72334C14.2807 9.99386 14.8076 10.3553 15.2023 10.662C15.883 10.4556 17.0873 10.1898 18.1762 10.1653H18.2011C19.2912 10.1898 20.4412 10.4556 21.105 10.6609C21.5008 10.3553 22.0266 9.9927 22.5558 9.72334C22.8814 9.55659 23.2343 9.41083 23.5758 9.34436C23.9037 9.28139 24.3243 9.2709 24.6839 9.51577C25.0548 9.76998 25.1973 10.1898 25.2527 10.5314C25.3104 10.8871 25.2968 11.2847 25.2527 11.6602C25.1774 12.254 25.051 12.8397 24.875 13.4105C25.3341 14.0635 25.9459 15.2913 25.9459 16.7478C25.9459 17.6993 25.912 18.4724 25.7084 19.1849C25.497 19.9195 25.1204 20.5445 24.512 21.2465C23.958 21.8843 23.1336 22.3053 22.3941 22.5758C22.0015 22.7181 21.6004 22.8338 21.1932 22.9221C21.3323 23.3559 21.382 23.7069 21.382 23.9086V27.5118C21.382 28.0598 21.6297 28.5274 21.9813 28.8003C22.3228 29.0673 22.7616 29.1501 23.2116 28.9472C27.5539 26.9742 30.5776 22.5373 30.5776 17.3681C30.5776 10.3658 25.0367 4.6789 18.1887 4.6789ZM15.3346 24.6945H15.33L15.321 24.6969L15.2882 24.7015C15.1202 24.7219 14.9517 24.7363 14.7827 24.7447C14.4639 24.7598 14.0262 24.761 13.5773 24.6945C12.6829 24.5639 12.139 23.9109 11.7873 23.4865L11.7534 23.4468C11.6384 23.3093 11.5149 23.1796 11.3836 23.0585C11.5001 23.2801 11.621 23.5273 11.7511 23.7932L11.7624 23.8165L11.8201 23.9378C12.018 24.3436 12.148 24.6141 12.364 24.8403C12.5743 25.0619 12.9022 25.2764 13.5649 25.4117L15.5935 25.695C15.7352 25.7148 15.8651 25.7869 15.9591 25.898C16.0531 26.0091 16.1048 26.1516 16.1046 26.2991V27.4966C16.1046 28.4295 15.6806 29.2609 15.0304 29.7646C14.689 30.0336 14.2829 30.2014 13.8559 30.2499C13.4288 30.2984 12.9971 30.2258 12.6071 30.0398C7.90075 27.8628 4.6192 23.0154 4.6192 17.3693C4.6192 9.68252 10.6995 3.46036 18.1887 3.46036C25.6779 3.46036 31.7581 9.68252 31.7581 17.3693C31.7581 23.0446 28.4348 27.9047 23.6877 30.0631C23.2974 30.2455 22.8664 30.3151 22.4408 30.2644C22.0151 30.2136 21.6108 30.0445 21.2712 29.7751C20.9354 29.5085 20.664 29.1653 20.4784 28.7724C20.2928 28.3795 20.198 27.9476 20.2015 27.5106V23.9074C20.2015 23.8258 20.1461 23.3547 19.8374 22.7215C19.7948 22.6338 19.7733 22.5367 19.7748 22.4385C19.7763 22.3403 19.8007 22.244 19.846 22.1576C19.8912 22.0712 19.956 21.9974 20.0348 21.9423C20.1136 21.8872 20.2042 21.8525 20.2987 21.8412C20.6866 21.7969 21.3402 21.6674 21.9994 21.426C22.6711 21.1812 23.2738 20.8453 23.6323 20.4325C24.1649 19.8192 24.4306 19.3481 24.5765 18.8385C24.728 18.3103 24.7665 17.6958 24.7665 16.7478C24.7665 15.4173 24.088 14.299 23.7759 13.9387C23.7051 13.8573 23.6568 13.7577 23.6361 13.6504C23.6154 13.5431 23.6231 13.432 23.6583 13.3288C23.8166 12.8694 24.0088 12.1546 24.0823 11.5168C24.1185 11.1961 24.1208 10.9279 24.0891 10.7343C24.082 10.6635 24.0613 10.595 24.0281 10.5326C23.9502 10.5187 23.8704 10.5223 23.794 10.5431C23.6018 10.5804 23.3564 10.6737 23.0782 10.8159C22.5241 11.0981 21.9474 11.5156 21.5901 11.8141C21.5113 11.88 21.4173 11.9238 21.3172 11.9412C21.2171 11.9585 21.1144 11.9489 21.019 11.9132C20.1035 11.6044 19.1511 11.4266 18.1887 11.385C17.05 11.413 15.736 11.7465 15.2871 11.9132C15.1917 11.9489 15.089 11.9585 14.9889 11.9412C14.8888 11.9238 14.7948 11.88 14.716 11.8141C14.2539 11.4305 13.7553 11.096 13.2279 10.8159C13.0014 10.6933 12.7604 10.6016 12.511 10.5431C12.435 10.5224 12.3555 10.5189 12.278 10.5326C12.2448 10.5949 12.224 10.6635 12.217 10.7343C12.1853 10.9279 12.1876 11.1961 12.2238 11.5168C12.2973 12.1546 12.4906 12.8694 12.6478 13.3288C12.719 13.5387 12.6749 13.7719 12.5302 13.9387C12.2181 14.299 11.5396 15.4173 11.5396 16.7478C11.5396 17.6946 11.5781 18.3103 11.7296 18.8385C11.8766 19.3481 12.1412 19.818 12.6727 20.4325C13.0323 20.8453 13.6339 21.1812 14.3067 21.426C14.8571 21.6269 15.4269 21.7661 16.0062 21.8412C16.1254 21.8544 16.2379 21.9047 16.3287 21.9854C16.4195 22.0661 16.4843 22.1734 16.5145 22.293C16.5447 22.4127 16.5389 22.5389 16.4978 22.6551C16.4567 22.7712 16.3822 22.8717 16.2844 22.9431C16.0978 23.0807 15.9746 23.3279 15.9056 23.6136C15.87 23.7607 15.8488 23.9111 15.8423 24.0625V24.0847C15.8437 24.2325 15.793 24.3759 15.6996 24.4881C15.6062 24.6003 15.4765 24.6736 15.3346 24.6945Z" fill="white"/>
</g>
<defs>
<filter id="filter0_d_15_59" x="0.619202" y="0.460358" width="35.1389" height="34.8201" filterUnits="userSpaceOnUse" color-interpolation-filters="sRGB">
<feFlood flood-opacity="0" result="BackgroundImageFix"/>
<feColorMatrix in="SourceAlpha" type="matrix" values="0 0 0 0 0 0 0 0 0 0 0 0 0 0 0 0 0 0 127 0" result="hardAlpha"/>
<feOffset dy="1"/>
<feGaussianBlur stdDeviation="2"/>
<feComposite in2="hardAlpha" operator="out"/>
<feColorMatrix type="matrix" values="0 0 0 0 0 0 0 0 0 0 0 0 0 0 0 0 0 0 1 0"/>
<feBlend mode="normal" in2="BackgroundImageFix" result="effect1_dropShadow_15_59"/>
<feBlend mode="normal" in="SourceGraphic" in2="effect1_dropShadow_15_59" result="shape"/>
</filter>
</defs>
</svg>
