<svg width="342" height="371" viewBox="0 0 342 341" fill="none" xmlns="http://www.w3.org/2000/svg">
<g filter="url(#filter0_d_15_68)">
<path d="M171 317.25C244.244 317.25 303.621 313.489 303.621 308.85C303.621 304.211 244.244 300.451 171 300.451C97.7556 300.451 38.3793 304.211 38.3793 308.85C38.3793 313.489 97.7556 317.25 171 317.25Z" fill="#989898"/>
</g>
<g filter="url(#filter1_d_15_68)">
<path d="M233.928 125.598L113.161 135.044C110.647 135.257 108.313 136.536 106.663 138.605C105.014 140.673 104.183 143.364 104.351 146.092L108.455 207.842C108.649 210.572 109.83 213.109 111.74 214.9C113.65 216.692 116.135 217.592 118.653 217.406L125.493 216.872C125.99 216.833 126.481 217.01 126.858 217.363C127.235 217.716 127.468 218.217 127.504 218.756L128.271 230.198C128.283 230.42 128.356 230.632 128.481 230.808C128.606 230.984 128.776 231.116 128.97 231.186C129.164 231.256 129.373 231.262 129.57 231.202C129.768 231.142 129.944 231.02 130.076 230.851L141.526 216.493C142.008 215.892 142.689 215.521 143.421 215.462L239.4 207.96C241.915 207.749 244.251 206.471 245.902 204.402C247.553 202.334 248.385 199.642 248.217 196.912L244.113 135.163C243.918 132.435 242.74 129.9 240.833 128.109C238.926 126.319 236.445 125.416 233.928 125.598Z" fill="black"/>
<path d="M130.801 163.388L137.327 162.876L137.86 170.89L144.987 170.334L144.454 162.32L151.007 161.801L152.532 184.699L145.979 185.211L145.364 175.95L138.236 176.514L138.852 185.775L132.333 186.286L130.801 163.388Z" fill="white"/>
<path opacity="0.2" d="M113.161 135.044C110.647 135.257 108.313 136.536 106.663 138.605C105.014 140.673 104.183 143.364 104.351 146.092L108.455 207.842C108.649 210.572 109.83 213.109 111.74 214.9C113.65 216.692 116.135 217.592 118.653 217.406L119.659 217.324C121.33 217.193 122.914 216.468 124.165 215.26C125.417 214.053 126.266 212.431 126.581 210.646L140.336 132.914L113.161 135.044Z" fill="black"/>
<path d="M173.004 176.344L161.253 177.264C161.343 178.09 161.663 178.866 162.17 179.49C162.46 179.822 162.818 180.076 163.214 180.233C163.61 180.39 164.035 180.445 164.454 180.395C165.03 180.35 165.586 180.146 166.068 179.801C166.446 179.491 166.768 179.109 167.019 178.674L172.833 178.8C172.2 180.355 171.173 181.683 169.871 182.628C168.677 183.45 166.912 183.944 164.577 184.112C162.945 184.319 161.291 184.128 159.735 183.556C158.487 182.988 157.416 182.043 156.65 180.833C155.771 179.456 155.266 177.839 155.193 176.166C155.071 175.004 155.174 173.827 155.497 172.711C155.82 171.596 156.355 170.566 157.067 169.688C158.49 167.967 160.542 166.999 163.223 166.787C164.998 166.558 166.798 166.787 168.476 167.455C169.761 168.05 170.844 169.064 171.575 170.356C172.411 171.96 172.88 173.759 172.943 175.602L173.004 176.344ZM166.848 173.762C166.765 172.797 166.381 171.891 165.761 171.194C165.448 170.933 165.089 170.745 164.706 170.64C164.324 170.536 163.925 170.518 163.536 170.588C163.147 170.657 162.775 170.813 162.443 171.045C162.112 171.277 161.828 171.58 161.609 171.936C161.244 172.634 161.059 173.427 161.075 174.229L166.848 173.762Z" fill="white"/>
<path d="M174.817 159.938L180.692 159.478L182.218 182.369L176.342 182.829L174.817 159.938Z" fill="white"/>
<path d="M184.632 159.166L190.508 158.706L192.033 181.597L186.164 182.057L184.632 159.166Z" fill="white"/>
<path d="M194.509 173.116C194.398 171.955 194.514 170.781 194.848 169.671C195.183 168.562 195.729 167.541 196.452 166.675C197.915 164.91 199.988 163.92 202.669 163.707C205.724 163.47 208.1 164.252 209.797 166.052C211.205 167.664 212.019 169.781 212.084 172.001C212.148 174.222 211.458 176.39 210.145 178.095C208.695 179.846 206.593 180.835 203.839 181.063C201.699 181.341 199.538 180.789 197.738 179.505C196.78 178.784 195.99 177.831 195.43 176.723C194.87 175.614 194.554 174.379 194.509 173.116ZM200.385 172.641C200.374 173.812 200.744 174.95 201.431 175.854C201.708 176.162 202.044 176.4 202.414 176.554C202.785 176.707 203.181 176.771 203.577 176.741C203.973 176.711 204.357 176.589 204.705 176.382C205.053 176.175 205.354 175.888 205.59 175.542C206.143 174.509 206.35 173.301 206.178 172.122C206.185 170.974 205.819 169.86 205.145 168.976C204.882 168.662 204.555 168.419 204.191 168.264C203.827 168.11 203.435 168.049 203.045 168.085C202.639 168.106 202.243 168.228 201.887 168.441C201.531 168.655 201.225 168.954 200.993 169.317C200.442 170.315 200.236 171.493 200.412 172.641H200.385Z" fill="white"/>
<path d="M213.935 156.866L220.193 156.377L220.542 161.571L220.029 172.144L216.158 172.448L214.277 162.06L213.935 156.866ZM215.303 174.14L221.144 173.68L221.52 179.289L215.672 179.742L215.303 174.14Z" fill="white"/>
</g>
<path d="M111.492 114.713C111.461 115.799 111.514 116.886 111.649 117.963C105.451 120.208 98.8413 120.777 92.3947 119.618C92.7042 118.349 92.8921 117.048 92.9556 115.737C92.74 117.057 92.3166 118.327 91.7039 119.492C90.4864 119.239 89.8023 119.024 89.8023 119.024C89.8023 119.024 91.0472 111.723 88.8037 106.41C86.5602 101.097 87.682 98.1295 89.3783 97.291C92.5247 86.7991 104.351 88.4538 108.352 92.7129C113.428 98.1147 113.455 113.333 114.358 116.813C113.612 117.162 112.881 117.481 112.149 117.763C111.782 116.79 111.56 115.761 111.492 114.713Z" fill="#9B3A25"/>
<path d="M116.383 131.045L116.998 133.159C117.224 133.901 117.45 134.643 117.682 135.348C118.14 136.832 118.619 138.316 119.132 139.741C119.645 141.165 120.138 142.664 120.671 144.119L121.465 146.345L121.663 146.894L121.711 147.02C121.626 146.94 121.529 146.877 121.424 146.834C121.273 146.775 121.212 146.834 121.307 146.834C121.472 146.834 121.636 146.806 121.793 146.753C122.328 146.569 122.842 146.32 123.325 146.011C124.492 145.273 125.607 144.445 126.663 143.532C127.771 142.598 128.859 141.596 129.926 140.564C130.993 139.533 132.067 138.457 133.1 137.404L135.199 139.333C134.324 140.698 133.4 141.945 132.463 143.213C131.526 144.482 130.473 145.669 129.392 146.849C128.28 148.081 127.069 149.203 125.774 150.203C125.033 150.766 124.237 151.239 123.4 151.613C122.87 151.844 122.313 151.998 121.745 152.073C120.974 152.177 120.192 152.062 119.474 151.739C118.692 151.377 118.026 150.773 117.559 150.003C117.456 149.832 117.361 149.661 117.285 149.506L117.101 149.105L116.855 148.563C116.533 147.821 116.171 147.079 115.89 146.382C115.268 144.898 114.645 143.414 114.077 141.93C113.51 140.446 112.956 138.917 112.429 137.389C112.183 136.647 111.937 135.838 111.704 135.059C111.471 134.28 111.246 133.515 111.02 132.603L116.383 131.045Z" fill="#FFC3BD"/>
<path d="M114.762 124.456C117.121 125.109 118.77 135.63 118.77 135.63L112.272 140.424C112.272 140.424 106.047 129.805 107.86 126.993C109.748 124.07 111.321 123.506 114.762 124.456Z" fill="black"/>
<path d="M114.762 124.456C117.121 125.109 118.77 135.63 118.77 135.63L112.272 140.424C112.272 140.424 106.047 129.805 107.86 126.993C109.748 124.07 111.321 123.506 114.762 124.456Z" fill="black"/>
<path opacity="0.4" d="M114.762 124.456C117.121 125.109 118.77 135.63 118.77 135.63L112.272 140.424C112.272 140.424 106.047 129.805 107.86 126.993C109.748 124.07 111.321 123.506 114.762 124.456Z" fill="white"/>
<path opacity="0.3" d="M114.549 126.808L116.362 137.411L112.71 140.097L114.549 126.808Z" fill="black"/>
<path d="M132.99 137.656L135.158 131.987L137.833 137.656C137.833 137.656 136.095 140.475 133.804 139.785L132.99 137.656Z" fill="#FFC3BD"/>
<path d="M137.546 131.401L140.979 132.9L137.833 137.656L135.152 131.987L137.546 131.401Z" fill="#FFC3BD"/>
<path d="M102.005 301.586H107.73L108.113 287.213H102.388L102.005 301.586Z" fill="#FFC3BD"/>
<path d="M63.6188 283.073L68.8788 285.507L75.7667 273.071L70.4999 270.637L63.6188 283.073Z" fill="#FFC3BD"/>
<path d="M69.8911 284.661L64.4191 281.01C64.3256 280.945 64.2131 280.919 64.1033 280.939C63.9934 280.958 63.894 281.02 63.824 281.114L60.534 285.395C60.4521 285.507 60.3933 285.637 60.3616 285.776C60.3298 285.915 60.3257 286.059 60.3497 286.2C60.3737 286.34 60.4251 286.474 60.5005 286.591C60.576 286.708 60.6737 286.807 60.7871 286.879C62.716 288.119 63.7009 288.608 66.1086 290.211C67.5929 291.205 69.6586 292.808 71.7037 294.173C73.7489 295.539 75.1237 293.431 74.3645 292.652C71.0471 289.217 71.1428 287.584 70.5204 285.551C70.4169 285.182 70.1933 284.865 69.8911 284.661Z" fill="#263238"/>
<path d="M107.921 300.866H101.499C101.388 300.865 101.281 300.907 101.197 300.985C101.112 301.062 101.057 301.17 101.04 301.289L100.309 306.81C100.291 306.951 100.301 307.095 100.34 307.232C100.378 307.369 100.444 307.495 100.532 307.601C100.62 307.708 100.728 307.792 100.849 307.849C100.969 307.906 101.1 307.933 101.232 307.93C103.475 307.893 104.556 307.744 107.388 307.744C109.125 307.744 112.723 307.945 115.124 307.945C117.525 307.945 117.648 305.37 116.649 305.133C112.169 304.086 110.404 302.647 108.893 301.274C108.625 301.015 108.28 300.87 107.921 300.866Z" fill="#263238"/>
<path opacity="0.2" d="M108.106 287.221L107.915 294.626H102.19L102.388 287.221H108.106Z" fill="black"/>
<path opacity="0.2" d="M70.4999 270.645L75.7598 273.071L72.2099 279.482L66.9499 277.048L70.4999 270.645Z" fill="black"/>
<path d="M114.762 124.456C114.762 124.456 117.498 125.494 112.026 161.904H88.7695C89.1594 151.65 89.1731 145.328 84.6655 124.278C87.9174 123.549 91.2139 123.077 94.5288 122.868C98.0423 122.593 101.569 122.593 105.083 122.868C109.625 123.313 114.762 124.456 114.762 124.456Z" fill="black"/>
<path opacity="0.4" d="M114.762 124.456C114.762 124.456 117.498 125.494 112.026 161.904H88.7695C89.1594 151.65 89.1731 145.328 84.6655 124.278C87.9174 123.549 91.2139 123.077 94.5288 122.868C98.0423 122.593 101.569 122.593 105.083 122.868C109.625 123.313 114.762 124.456 114.762 124.456Z" fill="white"/>
<path d="M94.5425 122.86C98.0562 122.593 101.583 122.593 105.097 122.86C105.664 122.92 106.246 122.987 106.82 123.061C107.059 123.451 107.213 123.895 107.269 124.359C107.324 124.824 107.281 125.296 107.142 125.739C106.396 127.735 103.722 127.965 101.779 127.965C94.5903 127.965 93.3728 123.409 93.3249 123.217L93.2565 122.942L94.5425 122.86Z" fill="white"/>
<path d="M95.589 109.979C96.273 113.689 96.9228 120.412 94.5425 122.868C94.5425 122.868 95.4727 126.578 101.779 126.578C108.715 126.578 105.097 122.868 105.097 122.868C101.307 121.888 101.41 118.839 102.066 115.982L95.589 109.979Z" fill="#FFC3BD"/>
<path d="M96.2798 107.36C95.4659 110.276 96.5945 117.177 98.2702 119.848C94.9665 117.793 93.8516 111.53 93.8516 111.53L96.2798 107.36Z" fill="#9B3A25"/>
<path opacity="0.2" d="M98.2293 112.428L102.066 115.975C101.898 116.64 101.788 117.32 101.738 118.008C100.295 117.778 98.3182 116.056 98.154 114.416C98.069 113.754 98.0945 113.08 98.2293 112.428Z" fill="black"/>
<path d="M92.4563 103.405C93.7833 109.393 94.221 111.96 97.5453 114.535C102.545 118.401 109.036 115.329 109.385 109.029C109.7 103.361 107.484 94.5234 101.636 93.1581C100.347 92.8495 99.0071 92.9032 97.7431 93.3142C96.4791 93.7252 95.3329 94.4798 94.4133 95.5063C93.4936 96.5329 92.8311 97.7975 92.4886 99.1799C92.1461 100.562 92.135 102.017 92.4563 103.405Z" fill="#FFC3BD"/>
<path d="M112.032 161.904C112.032 161.904 116.54 209.704 116.136 228.625C115.746 248.303 109.098 293.179 109.098 293.179H101.369C101.369 293.179 102.593 249.438 101.909 230.109C101.164 209.036 94.9939 161.89 94.9939 161.89L112.032 161.904Z" fill="black"/>
<path opacity="0.4" d="M112.032 161.904C112.032 161.904 116.54 209.704 116.136 228.625C115.746 248.303 109.098 293.179 109.098 293.179H101.369C101.369 293.179 102.593 249.438 101.909 230.109C101.164 209.036 94.9939 161.89 94.9939 161.89L112.032 161.904Z" fill="black"/>
<path d="M100.726 293.491H109.796L110.466 290.352L100.302 289.966L100.726 293.491Z" fill="black"/>
<path opacity="0.2" d="M102.012 173.799C107.716 186.249 103.154 208.962 101.136 217.413C100.103 204.725 98.3592 189.217 96.998 177.813C97.8599 171.402 99.3784 168.056 102.012 173.799Z" fill="black"/>
<path d="M105.897 161.904C105.897 161.904 100.63 211.618 96.656 227.549C91.9433 246.492 74.0019 278.747 74.0019 278.747L66.8268 275.438C66.8268 275.438 77.9281 238.813 81.5396 228.833C89.2346 207.537 82.6477 175.802 88.7969 161.904H105.897Z" fill="black"/>
<path opacity="0.4" d="M105.897 161.904C105.897 161.904 100.63 211.618 96.656 227.549C91.9433 246.492 74.0019 278.747 74.0019 278.747L66.8268 275.438C66.8268 275.438 77.9281 238.813 81.5396 228.833C89.2346 207.537 82.6477 175.802 88.7969 161.904H105.897Z" fill="black"/>
<path d="M65.835 275.46L74.7407 279.571L76.8816 276.974L66.6079 271.624L65.835 275.46Z" fill="black"/>
<path d="M101.232 103.487C101.314 103.976 101.615 104.333 101.916 104.273C102.217 104.214 102.388 103.769 102.306 103.279C102.224 102.789 101.923 102.433 101.622 102.485C101.321 102.537 101.116 102.99 101.232 103.487Z" fill="#263238"/>
<path d="M106.335 102.507C106.41 102.997 106.718 103.353 107.019 103.294C107.32 103.234 107.497 102.789 107.415 102.3C107.333 101.81 107.032 101.454 106.731 101.506C106.43 101.558 106.253 102.01 106.335 102.507Z" fill="#263238"/>
<path d="M106.601 101.565L107.634 101.008C107.634 101.008 107.224 102.04 106.601 101.565Z" fill="#263238"/>
<path d="M105.11 103.613C105.698 104.66 106.416 105.614 107.244 106.447C107.041 106.67 106.796 106.843 106.526 106.953C106.255 107.063 105.966 107.108 105.678 107.085L105.11 103.613Z" fill="#ED847E"/>
<path d="M103.619 109.408C103.878 109.407 104.137 109.383 104.392 109.334C104.412 109.333 104.431 109.327 104.448 109.318C104.466 109.308 104.481 109.295 104.493 109.278C104.505 109.262 104.514 109.243 104.519 109.222C104.524 109.202 104.525 109.18 104.521 109.159C104.518 109.138 104.51 109.118 104.499 109.101C104.488 109.084 104.474 109.069 104.457 109.058C104.44 109.047 104.421 109.04 104.402 109.038C104.382 109.036 104.363 109.038 104.344 109.044C103.781 109.166 103.199 109.141 102.646 108.973C102.094 108.804 101.585 108.495 101.164 108.072C101.138 108.045 101.104 108.03 101.068 108.03C101.032 108.03 100.998 108.045 100.972 108.072C100.959 108.086 100.948 108.102 100.941 108.119C100.934 108.137 100.93 108.157 100.93 108.176C100.93 108.196 100.934 108.215 100.941 108.233C100.948 108.251 100.959 108.267 100.972 108.28C101.686 109.015 102.635 109.419 103.619 109.408Z" fill="#263238"/>
<path d="M94.392 99.8955C94.5416 101.473 94.7699 103.041 95.076 104.592C95.076 104.592 98.496 99.8955 99.0637 97.3801C98.928 98.3704 98.6632 99.3348 98.2771 100.244C98.2771 100.244 102.88 99.1535 103.332 95.859C103.324 97.3339 103.173 98.8038 102.88 100.244C102.88 100.244 107.272 98.3744 106.868 95.2135C106.465 92.0525 99.7204 90.8282 96.6082 91.8967C93.496 92.9652 90.4521 96.4303 91.3687 101.194C92.2853 105.958 94.0432 107.746 94.0432 107.746C94.0432 107.746 92.7777 102.945 94.392 99.8955Z" fill="#9B3A25"/>
<path d="M92.2168 107.916C92.639 109.016 93.4459 109.888 94.4604 110.343C95.8284 110.936 96.6423 109.668 96.4029 108.198C96.1909 106.87 95.2264 104.971 93.8106 105C93.5007 105.015 93.1992 105.114 92.9332 105.287C92.6672 105.46 92.4451 105.702 92.287 105.991C92.1288 106.28 92.0396 106.608 92.0273 106.944C92.0151 107.28 92.0802 107.614 92.2168 107.916Z" fill="#FFC3BD"/>
<path d="M95.2196 97.6101C94.5356 100.578 95.9583 107.405 97.7504 109.979C94.3304 108.102 92.9624 101.899 92.9624 101.899L95.2196 97.6101Z" fill="#9B3A25"/>
<path d="M99.3578 101.795C99.3929 101.783 99.4256 101.764 99.4538 101.739C99.482 101.713 99.5052 101.682 99.522 101.647C99.6661 101.312 99.8814 101.019 100.15 100.792C100.419 100.565 100.733 100.41 101.068 100.341C101.139 100.33 101.203 100.29 101.247 100.229C101.292 100.168 101.313 100.091 101.307 100.014C101.304 99.9754 101.293 99.9377 101.276 99.9035C101.259 99.8692 101.236 99.8391 101.208 99.8148C101.18 99.7906 101.147 99.7727 101.113 99.7624C101.078 99.752 101.042 99.7493 101.006 99.7545C100.582 99.8343 100.181 100.024 99.8386 100.306C99.4958 100.589 99.2207 100.957 99.0363 101.379C99.0131 101.431 99.0041 101.489 99.0106 101.546C99.017 101.603 99.0385 101.657 99.0726 101.701C99.1066 101.745 99.1517 101.777 99.2023 101.794C99.2529 101.81 99.3069 101.811 99.3578 101.795Z" fill="#263238"/>
<path d="M108.202 99.4948C108.236 99.4964 108.271 99.4899 108.303 99.4758C108.334 99.4617 108.363 99.4404 108.387 99.4131C108.437 99.3577 108.465 99.2831 108.465 99.2054C108.465 99.1277 108.437 99.0531 108.387 98.9976C108.095 98.6552 107.733 98.3921 107.33 98.2297C106.927 98.0672 106.495 98.01 106.068 98.0627C106.032 98.0698 105.998 98.0845 105.968 98.106C105.938 98.1274 105.912 98.1551 105.891 98.1876C105.871 98.22 105.857 98.2565 105.85 98.2949C105.842 98.3333 105.842 98.3729 105.849 98.4115C105.864 98.4865 105.905 98.5523 105.964 98.5952C106.022 98.6381 106.094 98.6547 106.164 98.6415C106.5 98.6007 106.841 98.6466 107.159 98.7755C107.476 98.9044 107.761 99.1127 107.99 99.3835C108.015 99.418 108.048 99.4459 108.084 99.4651C108.121 99.4844 108.161 99.4945 108.202 99.4948Z" fill="#263238"/>
<path d="M87.5041 133.085C86.5534 136.342 85.6436 139.763 84.8707 143.132C84.0927 146.457 83.5237 149.836 83.1676 153.245L83.1128 153.869C83.1128 154.069 83.1128 154.113 83.1128 154.291C83.1204 154.641 83.1455 154.991 83.1881 155.338C83.2752 156.15 83.4008 156.958 83.5643 157.757C83.8858 159.411 84.2483 161.118 84.7134 162.81C85.1785 164.501 85.5752 166.223 86.0404 167.929L87.4084 173.049L84.8707 174.185C83.3112 170.949 81.9569 167.655 80.6915 164.257C80.0827 162.55 79.4876 160.829 78.9952 159.011C78.7489 158.105 78.5164 157.178 78.3112 156.169C78.2137 155.634 78.1452 155.094 78.106 154.551C78.106 154.277 78.106 153.869 78.106 153.624V152.882C78.1639 150.991 78.3238 149.106 78.5848 147.235C78.8105 145.38 79.1456 143.57 79.5082 141.767C80.2199 138.155 81.1336 134.595 82.2442 131.104L87.5041 133.085Z" fill="#FFC3BD"/>
<path d="M84.6792 124.278C82.3536 125.02 79.556 133.738 79.556 133.738L88.5848 140.743C88.5848 140.743 91.8817 133.486 90.9036 130.221C89.8844 126.823 87.34 123.402 84.6792 124.278Z" fill="black"/>
<path opacity="0.4" d="M84.6792 124.278C82.3536 125.02 79.556 133.738 79.556 133.738L88.5848 140.743C88.5848 140.743 91.8817 133.486 90.9036 130.221C89.8844 126.823 87.34 123.402 84.6792 124.278Z" fill="white"/>
<path d="M72.2031 287.02C72.3143 286.978 72.4155 286.909 72.4994 286.82C72.5834 286.73 72.648 286.621 72.6887 286.501C72.7282 286.424 72.749 286.337 72.749 286.249C72.749 286.16 72.7282 286.074 72.6887 285.996C72.2783 285.343 70.2058 285.395 69.9527 285.403C69.9265 285.403 69.9009 285.412 69.8791 285.428C69.8573 285.444 69.8401 285.466 69.8296 285.492C69.8163 285.515 69.8092 285.542 69.8092 285.57C69.8092 285.597 69.8163 285.624 69.8296 285.648C70.3699 286.234 71.3823 287.191 72.0936 287.043L72.2031 287.02ZM70.281 285.67C71.1087 285.67 72.2167 285.796 72.4356 286.145C72.4543 286.178 72.4642 286.217 72.4642 286.256C72.4642 286.295 72.4543 286.334 72.4356 286.367C72.4054 286.457 72.3552 286.537 72.2896 286.6C72.2239 286.664 72.1449 286.709 72.0594 286.731C71.6832 286.835 71.0266 286.412 70.281 285.67Z" fill="black"/>
<path d="M70.8897 285.514C71.519 285.299 72.1893 284.921 72.333 284.498C72.3687 284.388 72.3692 284.268 72.3344 284.157C72.2997 284.047 72.2317 283.953 72.1415 283.889C72.0618 283.817 71.968 283.766 71.8673 283.739C71.7666 283.712 71.6615 283.71 71.5601 283.733C70.7461 283.889 69.8706 285.403 69.8364 285.47C69.8244 285.492 69.8181 285.518 69.8181 285.544C69.8181 285.57 69.8244 285.595 69.8364 285.618C69.8487 285.64 69.8657 285.658 69.886 285.671C69.9063 285.684 69.9292 285.691 69.9527 285.692C70.2713 285.682 70.587 285.622 70.8897 285.514ZM71.519 284.03H71.6079C71.6723 284.016 71.7387 284.017 71.8026 284.033C71.8665 284.05 71.9261 284.082 71.9773 284.127C72.1141 284.245 72.1004 284.334 72.0799 284.401C71.9431 284.809 70.9034 285.299 70.2126 285.395C70.5269 284.825 70.9785 284.358 71.519 284.045V284.03Z" fill="black"/>
<path d="M110.069 301.949C110.551 301.992 111.033 301.859 111.437 301.571C111.531 301.479 111.603 301.363 111.646 301.233C111.689 301.104 111.702 300.965 111.683 300.829C111.678 300.749 111.654 300.671 111.613 300.603C111.573 300.536 111.517 300.481 111.451 300.443C110.767 300.028 108.476 301.289 108.216 301.43C108.191 301.441 108.169 301.46 108.154 301.485C108.139 301.509 108.131 301.538 108.131 301.567C108.131 301.597 108.139 301.626 108.154 301.65C108.169 301.674 108.191 301.693 108.216 301.705C108.824 301.854 109.445 301.936 110.069 301.949ZM111.088 300.666C111.175 300.66 111.262 300.678 111.341 300.718C111.368 300.734 111.391 300.757 111.407 300.786C111.422 300.815 111.431 300.848 111.43 300.881C111.443 300.966 111.436 301.054 111.41 301.135C111.384 301.217 111.339 301.29 111.28 301.348C110.931 301.69 109.987 301.749 108.722 301.519C109.46 301.091 110.261 300.803 111.088 300.666Z" fill="black"/>
<path d="M108.298 301.734H108.352C109.036 301.4 110.404 300.065 110.281 299.36C110.281 299.189 110.145 298.989 109.768 298.944C109.634 298.928 109.497 298.942 109.368 298.985C109.238 299.029 109.119 299.101 109.016 299.197C108.332 299.85 108.168 301.519 108.161 301.586C108.16 301.612 108.165 301.638 108.176 301.661C108.187 301.685 108.203 301.705 108.222 301.719C108.245 301.735 108.272 301.74 108.298 301.734ZM109.666 299.219H109.748C109.994 299.219 110.015 299.36 110.015 299.39C110.083 299.813 109.166 300.874 108.469 301.326C108.523 300.621 108.779 299.952 109.201 299.412C109.326 299.288 109.489 299.219 109.659 299.219H109.666Z" fill="black"/>
<path d="M88.448 160.428L87.8598 162.654C87.7777 162.824 87.9692 163.003 88.236 163.003H112.176C112.388 163.003 112.559 162.891 112.573 162.75L112.785 160.524C112.785 160.368 112.614 160.235 112.388 160.235H88.8311C88.7573 160.229 88.6833 160.243 88.6163 160.277C88.5492 160.311 88.4912 160.363 88.448 160.428Z" fill="#263238"/>
<path d="M91.6081 163.277H90.972C90.8489 163.277 90.7531 163.21 90.76 163.121L91.0541 160.153C91.0541 160.072 91.1772 159.997 91.3003 159.997H91.9296C92.0596 159.997 92.1485 160.072 92.1417 160.153L91.8475 163.121C91.8475 163.24 91.7381 163.277 91.6081 163.277Z" fill="black"/>
<path opacity="0.4" d="M91.6081 163.277H90.972C90.8489 163.277 90.7531 163.21 90.76 163.121L91.0541 160.153C91.0541 160.072 91.1772 159.997 91.3003 159.997H91.9296C92.0596 159.997 92.1485 160.072 92.1417 160.153L91.8475 163.121C91.8475 163.24 91.7381 163.277 91.6081 163.277Z" fill="black"/>
<path d="M110.37 163.277H109.741C109.618 163.277 109.522 163.21 109.529 163.121L109.83 160.153C109.83 160.072 109.946 159.997 110.069 159.997H110.699C110.829 159.997 110.924 160.072 110.911 160.153L110.616 163.121C110.61 163.24 110.5 163.277 110.37 163.277Z" fill="black"/>
<path opacity="0.4" d="M110.37 163.277H109.741C109.618 163.277 109.522 163.21 109.529 163.121L109.83 160.153C109.83 160.072 109.946 159.997 110.069 159.997H110.699C110.829 159.997 110.924 160.072 110.911 160.153L110.616 163.121C110.61 163.24 110.5 163.277 110.37 163.277Z" fill="black"/>
<path d="M100.993 163.277H100.363C100.233 163.277 100.138 163.21 100.151 163.121L100.445 160.153C100.445 160.072 100.562 159.997 100.692 159.997H101.321C101.444 159.997 101.54 160.072 101.533 160.153L101.239 163.121C101.232 163.24 101.116 163.277 100.993 163.277Z" fill="black"/>
<path opacity="0.4" d="M100.993 163.277H100.363C100.233 163.277 100.138 163.21 100.151 163.121L100.445 160.153C100.445 160.072 100.562 159.997 100.692 159.997H101.321C101.444 159.997 101.54 160.072 101.533 160.153L101.239 163.121C101.232 163.24 101.116 163.277 100.993 163.277Z" fill="black"/>
<path d="M101.465 102.537L102.497 101.988C102.497 101.988 102.087 103.019 101.465 102.537Z" fill="#263238"/>
<path d="M87.2168 172.211L92.1211 176.292L86.4371 177.65C86.4371 177.65 84.0225 174.682 84.857 172.233L87.2168 172.211Z" fill="#FFC3BD"/>
<path d="M93.325 181.345L88.5096 182.198L85.8831 176.841L92.1211 176.292L93.325 181.345Z" fill="#FFC3BD"/>
<defs>
<filter id="filter0_d_15_68" x="34.3793" y="300.451" width="273.242" height="25.7988" filterUnits="userSpaceOnUse" color-interpolation-filters="sRGB">
<feFlood flood-opacity="0" result="BackgroundImageFix"/>
<feColorMatrix in="SourceAlpha" type="matrix" values="0 0 0 0 0 0 0 0 0 0 0 0 0 0 0 0 0 0 127 0" result="hardAlpha"/>
<feOffset dy="5"/>
<feGaussianBlur stdDeviation="2"/>
<feComposite in2="hardAlpha" operator="out"/>
<feColorMatrix type="matrix" values="0 0 0 0 1 0 0 0 0 1 0 0 0 0 1 0 0 0 0.14 0"/>
<feBlend mode="normal" in2="BackgroundImageFix" result="effect1_dropShadow_15_68"/>
<feBlend mode="normal" in="SourceGraphic" in2="effect1_dropShadow_15_68" result="shape"/>
</filter>
<filter id="filter1_d_15_68" x="96.3298" y="118.575" width="159.908" height="121.668" filterUnits="userSpaceOnUse" color-interpolation-filters="sRGB">
<feFlood flood-opacity="0" result="BackgroundImageFix"/>
<feColorMatrix in="SourceAlpha" type="matrix" values="0 0 0 0 0 0 0 0 0 0 0 0 0 0 0 0 0 0 127 0" result="hardAlpha"/>
<feOffset dy="1"/>
<feGaussianBlur stdDeviation="4"/>
<feComposite in2="hardAlpha" operator="out"/>
<feColorMatrix type="matrix" values="0 0 0 0 1 0 0 0 0 0.429167 0 0 0 0 0.942916 0 0 0 0.85 0"/>
<feBlend mode="normal" in2="BackgroundImageFix" result="effect1_dropShadow_15_68"/>
<feBlend mode="normal" in="SourceGraphic" in2="effect1_dropShadow_15_68" result="shape"/>
</filter>
</defs>
</svg>
