<svg width="32" height="33" viewBox="0 0 32 33" fill="none" xmlns="http://www.w3.org/2000/svg">
<g filter="url(#filter0_d_15_62)">
<path d="M22.9118 18.0537V23.1371H20.1295V18.3934C20.1295 17.2026 19.727 16.39 18.7195 16.39C17.9509 16.39 17.4926 16.9372 17.2914 17.468C17.2187 17.6577 17.1992 17.9217 17.1992 18.1857V23.1371H14.4156C14.4156 23.1371 14.4533 15.1044 14.4156 14.2725H17.1992V15.5279L17.181 15.5567H17.1992V15.5292C17.5692 14.9242 18.2288 14.0635 19.7075 14.0635C21.5382 14.0635 22.9118 15.3312 22.9118 18.0537ZM11.5035 9.99762C10.5518 9.99762 9.92865 10.6604 9.92865 11.5294C9.92865 12.3819 10.5337 13.0625 11.4672 13.0625H11.4853C12.4565 13.0625 13.0602 12.3805 13.0602 11.5294C13.042 10.6604 12.4565 9.99762 11.5035 9.99762ZM10.0935 23.1371H12.8771V14.2725H10.0935V23.1371Z" fill="white"/>
<path d="M16.4202 27.5C19.1749 27.5 21.8167 26.3411 23.7646 24.2782C25.7124 22.2153 26.8067 19.4174 26.8067 16.5C26.8067 13.5826 25.7124 10.7847 23.7646 8.72183C21.8167 6.65893 19.1749 5.5 16.4202 5.5C13.6655 5.5 11.0237 6.65893 9.07584 8.72183C7.12799 10.7847 6.0337 13.5826 6.0337 16.5C6.0337 19.4174 7.12799 22.2153 9.07584 24.2782C11.0237 26.3411 13.6655 27.5 16.4202 27.5ZM16.4202 30.25C9.24962 30.25 3.43707 24.0941 3.43707 16.5C3.43707 8.90588 9.24962 2.75 16.4202 2.75C23.5908 2.75 29.4034 8.90588 29.4034 16.5C29.4034 24.0941 23.5908 30.25 16.4202 30.25Z" fill="white"/>
</g>
<defs>
<filter id="filter0_d_15_62" x="-0.562927" y="-0.25" width="33.9662" height="35.5" filterUnits="userSpaceOnUse" color-interpolation-filters="sRGB">
<feFlood flood-opacity="0" result="BackgroundImageFix"/>
<feColorMatrix in="SourceAlpha" type="matrix" values="0 0 0 0 0 0 0 0 0 0 0 0 0 0 0 0 0 0 127 0" result="hardAlpha"/>
<feOffset dy="1"/>
<feGaussianBlur stdDeviation="2"/>
<feComposite in2="hardAlpha" operator="out"/>
<feColorMatrix type="matrix" values="0 0 0 0 0 0 0 0 0 0 0 0 0 0 0 0 0 0 1 0"/>
<feBlend mode="normal" in2="BackgroundImageFix" result="effect1_dropShadow_15_62"/>
<feBlend mode="normal" in="SourceGraphic" in2="effect1_dropShadow_15_62" result="shape"/>
</filter>
</defs>
</svg>
