<svg width="398" height="256" viewBox="0 0 398 256" fill="none" xmlns="http://www.w3.org/2000/svg">
<path d="M25.9 75.5C21.7667 75.5 17.3 74.9333 12.5 73.8C7.76667 72.6 3.96667 71.1667 1.1 69.5V52.8C1.1 52.0667 1.3 51.5 1.7 51.1C2.1 50.6333 2.7 50.4 3.5 50.4C4.76667 50.4 5.76667 50.8667 6.5 51.8C7.23333 52.7333 8.06667 54.6333 9 57.5L10.9 63.1C12.2333 63.9 14.1333 64.6 16.6 65.2C19.1333 65.8 21.7333 66.1 24.4 66.1C28.2 66.1 31.4 65.4667 34 64.2C36.6 62.8667 37.9 60.8 37.9 58C37.9 56.0667 37.4333 54.4333 36.5 53.1C35.6333 51.7 34.1667 50.3667 32.1 49.1C30.0333 47.7667 26.9667 46.1667 22.9 44.3C18.4333 42.2333 14.7 40.2333 11.7 38.3C8.7 36.3667 6.23333 34.0333 4.3 31.3C2.36667 28.5 1.4 25.2667 1.4 21.6C1.4 17.5333 2.53333 14.1 4.8 11.3C7.06667 8.5 10.0333 6.43333 13.7 5.1C17.3667 3.7 21.3667 3 25.7 3C30.1 3 34.4 3.63333 38.6 4.9C42.8 6.16666 46.3333 7.86666 49.2 10V25.5C49.2 26.2333 49 26.8333 48.6 27.3C48.2 27.7 47.6 27.9 46.8 27.9C45.5333 27.9 44.5333 27.4333 43.8 26.5C43.0667 25.5667 42.2333 23.6667 41.3 20.8L39.4 15.2C36.0667 13.3333 31.9333 12.4 27 12.4C23.8 12.4 21.2333 13.0333 19.3 14.3C17.3667 15.5667 16.4 17.4333 16.4 19.9C16.4 21.5 16.9333 22.9333 18 24.2C19.0667 25.4 20.5333 26.5333 22.4 27.6C24.2667 28.6667 27.0667 30.1 30.8 31.9L34.8 33.8C38.6667 35.6667 41.8667 37.5333 44.4 39.4C46.9333 41.2667 48.9667 43.6 50.5 46.4C52.1 49.1333 52.9 52.4333 52.9 56.3C52.9 62.7 50.4 67.5 45.4 70.7C40.4667 73.9 33.9667 75.5 25.9 75.5ZM63.6609 74C61.8609 74 60.9609 72.9 60.9609 70.7C60.9609 69.1667 61.4943 68 62.5609 67.2C63.6943 66.4 65.2276 66 67.1609 66H68.0609V11H63.6609C61.8609 11 60.9609 9.89999 60.9609 7.7C60.9609 6.16666 61.4943 5 62.5609 4.2C63.6943 3.4 65.2276 3 67.1609 3H81.6609V30.8H82.0609C87.4609 26.1333 92.9276 23.8 98.4609 23.8C103.394 23.8 107.394 25.2 110.461 28C113.528 30.7333 115.061 34.5 115.061 39.3V66.1L118.661 67.9C120.194 68.6333 121.261 69.3 121.861 69.9C122.461 70.4333 122.761 71.1667 122.761 72.1C122.761 72.7667 122.628 73.2667 122.361 73.6C122.094 73.8667 121.628 74 120.961 74H96.6609C94.8609 74 93.9609 72.9 93.9609 70.7C93.9609 69.1667 94.4943 68 95.5609 67.2C96.6943 66.4 98.2276 66 100.161 66H101.061V40.4C101.061 35.1333 98.5943 32.5 93.6609 32.5C91.7276 32.5 89.7276 33.0667 87.6609 34.2C85.5943 35.2667 83.7276 36.7 82.0609 38.5V66.1L85.6609 67.9C87.1943 68.6333 88.2609 69.3 88.8609 69.9C89.4609 70.4333 89.7609 71.1667 89.7609 72.1C89.7609 72.7667 89.6276 73.2667 89.3609 73.6C89.0943 73.8667 88.6276 74 87.9609 74H63.6609ZM140.953 18.3C138.353 18.3 136.186 17.5 134.453 15.9C132.786 14.2333 131.953 12.0333 131.953 9.3C131.953 6.56666 132.786 4.4 134.453 2.8C136.186 1.13333 138.353 0.299995 140.953 0.299995C143.553 0.299995 145.686 1.13333 147.353 2.8C149.086 4.4 149.953 6.56666 149.953 9.3C149.953 12.0333 149.086 14.2333 147.353 15.9C145.686 17.5 143.553 18.3 140.953 18.3ZM129.853 74C128.053 74 127.153 72.9 127.153 70.7C127.153 69.1667 127.686 68 128.753 67.2C129.886 66.4 131.42 66 133.353 66H134.253V32.8H129.853C128.053 32.8 127.153 31.7 127.153 29.5C127.153 27.9667 127.686 26.8 128.753 26C129.886 25.2 131.42 24.8 133.353 24.8H148.253V66.1L151.853 67.9C153.386 68.6333 154.453 69.3 155.053 69.9C155.653 70.4333 155.953 71.1667 155.953 72.1C155.953 72.7667 155.82 73.2667 155.553 73.6C155.286 73.8667 154.82 74 154.153 74H129.853ZM175.863 75.5C171.53 75.5 167.83 74.3 164.763 71.9C161.697 69.4333 160.163 65.9333 160.163 61.4C160.163 56.1333 162.03 52.3 165.763 49.9C169.497 47.5 174.33 45.8667 180.263 45L190.763 43.4V40.2C190.763 37.6667 189.963 35.7333 188.363 34.4C186.83 33 184.63 32.3 181.763 32.3C180.03 32.3 178.13 32.5667 176.063 33.1C174.063 33.6333 172.53 34.2333 171.463 34.9L170.363 38.8C169.963 40.2667 169.397 41.3667 168.663 42.1C167.93 42.8333 166.963 43.2 165.763 43.2C164.897 43.2 164.23 43 163.763 42.6C163.363 42.2 163.163 41.6667 163.163 41V29.4C166.097 27.7333 169.43 26.4 173.163 25.4C176.963 24.3333 180.663 23.8 184.263 23.8C190.397 23.8 195.33 25.2333 199.063 28.1C202.863 30.9667 204.763 35.1333 204.763 40.6V66.4L207.763 67.9C209.297 68.6333 210.363 69.3 210.963 69.9C211.563 70.5 211.863 71.2333 211.863 72.1C211.863 72.7667 211.73 73.2667 211.463 73.6C211.197 73.8667 210.73 74 210.063 74H190.963V69.4H190.563C188.897 71.2667 186.73 72.7667 184.063 73.9C181.397 74.9667 178.663 75.5 175.863 75.5ZM180.263 66.6C183.063 66.6 185.497 65.6333 187.563 63.7C189.697 61.7667 190.763 59.5667 190.763 57.1V51.4L182.763 52.7C177.03 53.7 174.163 56.3667 174.163 60.7C174.163 62.4333 174.697 63.8667 175.763 65C176.83 66.0667 178.33 66.6 180.263 66.6ZM219.318 74C217.518 74 216.618 72.9 216.618 70.7C216.618 69.1667 217.151 68 218.218 67.2C219.351 66.4 220.885 66 222.818 66H223.718V32.8H219.318C217.518 32.8 216.618 31.7 216.618 29.5C216.618 27.9667 217.151 26.8 218.218 26C219.351 25.2 220.885 24.8 222.818 24.8H237.118V30.8H237.518C239.985 28.6667 242.618 26.9667 245.418 25.7C248.218 24.4333 251.118 23.8 254.118 23.8C259.051 23.8 263.051 25.2 266.118 28C269.185 30.7333 270.718 34.5 270.718 39.3V66.1L274.318 67.9C275.851 68.6333 276.918 69.3 277.518 69.9C278.118 70.4333 278.418 71.1667 278.418 72.1C278.418 72.7667 278.285 73.2667 278.018 73.6C277.751 73.8667 277.285 74 276.618 74H252.318C250.518 74 249.618 72.9 249.618 70.7C249.618 69.1667 250.151 68 251.218 67.2C252.351 66.4 253.885 66 255.818 66H256.718V40.6C256.718 35.3333 254.251 32.7 249.318 32.7C247.385 32.7 245.385 33.2667 243.318 34.4C241.251 35.4667 239.385 36.9 237.718 38.7V66.1L241.318 67.9C242.851 68.6333 243.918 69.3 244.518 69.9C245.118 70.4333 245.418 71.1667 245.418 72.1C245.418 72.7667 245.285 73.2667 245.018 73.6C244.751 73.8667 244.285 74 243.618 74H219.318ZM286.017 74C284.217 74 283.317 72.9 283.317 70.7C283.317 69.1667 283.851 68 284.917 67.2C286.051 66.4 287.584 66 289.517 66H290.417V32.8H286.017C284.217 32.8 283.317 31.7 283.317 29.5C283.317 27.9667 283.851 26.8 284.917 26C286.051 25.2 287.584 24.8 289.517 24.8H303.817V30.8H304.217C306.684 28.6667 309.317 26.9667 312.117 25.7C314.917 24.4333 317.817 23.8 320.817 23.8C325.751 23.8 329.751 25.2 332.817 28C335.884 30.7333 337.417 34.5 337.417 39.3V66.1L341.017 67.9C342.551 68.6333 343.617 69.3 344.217 69.9C344.817 70.4333 345.117 71.1667 345.117 72.1C345.117 72.7667 344.984 73.2667 344.717 73.6C344.451 73.8667 343.984 74 343.317 74H319.017C317.217 74 316.317 72.9 316.317 70.7C316.317 69.1667 316.851 68 317.917 67.2C319.051 66.4 320.584 66 322.517 66H323.417V40.6C323.417 35.3333 320.951 32.7 316.017 32.7C314.084 32.7 312.084 33.2667 310.017 34.4C307.951 35.4667 306.084 36.9 304.417 38.7V66.1L308.017 67.9C309.551 68.6333 310.617 69.3 311.217 69.9C311.817 70.4333 312.117 71.1667 312.117 72.1C312.117 72.7667 311.984 73.2667 311.717 73.6C311.451 73.8667 310.984 74 310.317 74H286.017ZM376.016 75.5C371.016 75.5 366.483 74.5667 362.416 72.7C358.416 70.7667 355.216 67.9 352.816 64.1C350.483 60.2333 349.316 55.5667 349.316 50.1C349.316 44.5 350.416 39.7333 352.616 35.8C354.883 31.8 357.916 28.8 361.716 26.8C365.583 24.8 369.883 23.8 374.616 23.8C379.016 23.8 382.983 24.6667 386.516 26.4C390.05 28.1333 392.816 30.6333 394.816 33.9C396.816 37.1 397.816 40.8333 397.816 45.1C397.816 46.5 397.616 48 397.216 49.6C396.816 51.1333 396.316 52.5 395.716 53.7H363.416C363.416 58.1667 364.716 61.5 367.316 63.7C369.983 65.9 373.116 67 376.716 67C378.983 67 380.95 66.7667 382.616 66.3C384.283 65.7667 386.25 64.8667 388.516 63.6C388.716 63.4667 389.083 63.2667 389.616 63C390.216 62.6667 390.65 62.4667 390.916 62.4C391.25 62.2667 391.55 62.2 391.816 62.2C392.816 62.2 393.65 62.5667 394.316 63.3C395.05 64.0333 395.416 65 395.416 66.2C395.416 67.3333 395.083 68.3333 394.416 69.2C393.75 70 392.683 70.8333 391.216 71.7C386.883 74.2333 381.816 75.5 376.016 75.5ZM383.216 45.2C383.616 44.2667 383.816 43.2333 383.816 42.1C383.816 39.1 382.983 36.7333 381.316 35C379.65 33.2 377.35 32.3 374.416 32.3C371.483 32.3 368.983 33.4667 366.916 35.8C364.85 38.0667 363.683 41.2 363.416 45.2H383.216ZM13.8 171.9C9.8 165.833 6.63333 159.167 4.3 151.9C2.03333 144.567 0.9 136.933 0.9 129C0.9 121.133 2.03333 113.6 4.3 106.4C6.56667 99.2 9.73333 92.5667 13.8 86.5H26.8C23.3333 93.2333 20.6333 100.1 18.7 107.1C16.8333 114.033 15.9 121.333 15.9 129C15.9 143.533 19.5333 157.833 26.8 171.9H13.8ZM33.2914 164C32.3581 164 31.6247 163.7 31.0914 163.1C30.6247 162.5 30.3914 161.633 30.3914 160.5C30.3914 158.833 30.9914 157.6 32.1914 156.8C33.3914 155.933 34.9914 155.5 36.9914 155.5H37.9914L60.9914 94.5H77.0914L100.291 155.6L103.691 157C105.291 157.667 106.425 158.333 107.091 159C107.758 159.6 108.091 160.4 108.091 161.4C108.091 163.133 107.525 164 106.391 164H78.7914C77.8581 164 77.1247 163.7 76.5914 163.1C76.1247 162.5 75.8914 161.633 75.8914 160.5C75.8914 158.833 76.4914 157.6 77.6914 156.8C78.8914 155.933 80.4914 155.5 82.4914 155.5H85.1914L80.6914 144.1H53.2914L48.9914 155.6L54.3914 157.6C56.1914 158.267 57.4247 158.9 58.0914 159.5C58.7581 160.1 59.0914 160.867 59.0914 161.8C59.0914 163.267 58.5247 164 57.3914 164H33.2914ZM77.2914 134.7L67.0914 107L56.7914 134.7H77.2914ZM114.24 164C112.44 164 111.54 162.9 111.54 160.7C111.54 159.167 112.073 158 113.14 157.2C114.273 156.4 115.807 156 117.74 156H118.64V122.8H114.24C112.44 122.8 111.54 121.7 111.54 119.5C111.54 117.967 112.073 116.8 113.14 116C114.273 115.2 115.807 114.8 117.74 114.8H132.04V120.8H132.44C134.907 118.667 137.54 116.967 140.34 115.7C143.14 114.433 146.04 113.8 149.04 113.8C153.973 113.8 157.973 115.2 161.04 118C164.107 120.733 165.64 124.5 165.64 129.3V156.1L169.24 157.9C170.773 158.633 171.84 159.3 172.44 159.9C173.04 160.433 173.34 161.167 173.34 162.1C173.34 162.767 173.207 163.267 172.94 163.6C172.673 163.867 172.207 164 171.54 164H147.24C145.44 164 144.54 162.9 144.54 160.7C144.54 159.167 145.073 158 146.14 157.2C147.273 156.4 148.807 156 150.74 156H151.64V130.6C151.64 125.333 149.173 122.7 144.24 122.7C142.307 122.7 140.307 123.267 138.24 124.4C136.173 125.467 134.307 126.9 132.64 128.7V156.1L136.24 157.9C137.773 158.633 138.84 159.3 139.44 159.9C140.04 160.433 140.34 161.167 140.34 162.1C140.34 162.767 140.207 163.267 139.94 163.6C139.673 163.867 139.207 164 138.54 164H114.24ZM193.539 165.5C189.206 165.5 185.506 164.3 182.439 161.9C179.372 159.433 177.839 155.933 177.839 151.4C177.839 146.133 179.706 142.3 183.439 139.9C187.172 137.5 192.006 135.867 197.939 135L208.439 133.4V130.2C208.439 127.667 207.639 125.733 206.039 124.4C204.506 123 202.306 122.3 199.439 122.3C197.706 122.3 195.806 122.567 193.739 123.1C191.739 123.633 190.206 124.233 189.139 124.9L188.039 128.8C187.639 130.267 187.072 131.367 186.339 132.1C185.606 132.833 184.639 133.2 183.439 133.2C182.572 133.2 181.906 133 181.439 132.6C181.039 132.2 180.839 131.667 180.839 131V119.4C183.772 117.733 187.106 116.4 190.839 115.4C194.639 114.333 198.339 113.8 201.939 113.8C208.072 113.8 213.006 115.233 216.739 118.1C220.539 120.967 222.439 125.133 222.439 130.6V156.4L225.439 157.9C226.972 158.633 228.039 159.3 228.639 159.9C229.239 160.5 229.539 161.233 229.539 162.1C229.539 162.767 229.406 163.267 229.139 163.6C228.872 163.867 228.406 164 227.739 164H208.639V159.4H208.239C206.572 161.267 204.406 162.767 201.739 163.9C199.072 164.967 196.339 165.5 193.539 165.5ZM197.939 156.6C200.739 156.6 203.172 155.633 205.239 153.7C207.372 151.767 208.439 149.567 208.439 147.1V141.4L200.439 142.7C194.706 143.7 191.839 146.367 191.839 150.7C191.839 152.433 192.372 153.867 193.439 155C194.506 156.067 196.006 156.6 197.939 156.6ZM234.494 171.9C241.76 157.833 245.394 143.533 245.394 129C245.394 121.333 244.427 114.033 242.494 107.1C240.627 100.1 237.96 93.2333 234.494 86.5H247.494C251.56 92.5667 254.727 99.2 256.994 106.4C259.26 113.6 260.394 121.133 260.394 129C260.394 136.933 259.227 144.567 256.894 151.9C254.627 159.167 251.494 165.833 247.494 171.9H234.494ZM35.3 255.5C28.7667 255.5 22.9 254.233 17.7 251.7C12.5667 249.1 8.46667 245.1 5.4 239.7C2.4 234.233 0.9 227.433 0.9 219.3C0.9 211.167 2.4 204.4 5.4 199C8.46667 193.533 12.5667 189.5 17.7 186.9C22.9 184.3 28.7667 183 35.3 183C41.8333 183 47.6667 184.3 52.8 186.9C58 189.5 62.1 193.533 65.1 199C68.1667 204.4 69.7 211.167 69.7 219.3C69.7 227.433 68.1667 234.233 65.1 239.7C62.1 245.1 58 249.1 52.8 251.7C47.6667 254.233 41.8333 255.5 35.3 255.5ZM35.3 246.1C41.6333 246.1 46.4 243.833 49.6 239.3C52.8667 234.7 54.5 228.033 54.5 219.3C54.5 210.567 52.8667 203.9 49.6 199.3C46.4 194.7 41.6333 192.4 35.3 192.4C28.9667 192.4 24.1667 194.7 20.9 199.3C17.7 203.9 16.1 210.567 16.1 219.3C16.1 228.033 17.7 234.7 20.9 239.3C24.1667 243.833 28.9667 246.1 35.3 246.1ZM79.4859 254C77.6859 254 76.7859 252.9 76.7859 250.7C76.7859 249.167 77.3193 248 78.3859 247.2C79.5193 246.4 81.0526 246 82.9859 246H83.8859V191H79.4859C77.6859 191 76.7859 189.9 76.7859 187.7C76.7859 186.167 77.3193 185 78.3859 184.2C79.5193 183.4 81.0526 183 82.9859 183H97.8859V246.1L101.486 247.9C103.019 248.633 104.086 249.3 104.686 249.9C105.286 250.433 105.586 251.167 105.586 252.1C105.586 252.767 105.453 253.267 105.186 253.6C104.919 253.867 104.453 254 103.786 254H79.4859ZM136.954 255.5C131.954 255.5 127.421 254.567 123.354 252.7C119.354 250.767 116.154 247.9 113.754 244.1C111.421 240.233 110.254 235.567 110.254 230.1C110.254 224.5 111.354 219.733 113.554 215.8C115.821 211.8 118.854 208.8 122.654 206.8C126.521 204.8 130.821 203.8 135.554 203.8C139.954 203.8 143.921 204.667 147.454 206.4C150.987 208.133 153.754 210.633 155.754 213.9C157.754 217.1 158.754 220.833 158.754 225.1C158.754 226.5 158.554 228 158.154 229.6C157.754 231.133 157.254 232.5 156.654 233.7H124.354C124.354 238.167 125.654 241.5 128.254 243.7C130.921 245.9 134.054 247 137.654 247C139.921 247 141.887 246.767 143.554 246.3C145.221 245.767 147.187 244.867 149.454 243.6C149.654 243.467 150.021 243.267 150.554 243C151.154 242.667 151.587 242.467 151.854 242.4C152.187 242.267 152.487 242.2 152.754 242.2C153.754 242.2 154.587 242.567 155.254 243.3C155.987 244.033 156.354 245 156.354 246.2C156.354 247.333 156.021 248.333 155.354 249.2C154.687 250 153.621 250.833 152.154 251.7C147.821 254.233 142.754 255.5 136.954 255.5ZM144.154 225.2C144.554 224.267 144.754 223.233 144.754 222.1C144.754 219.1 143.921 216.733 142.254 215C140.587 213.2 138.287 212.3 135.354 212.3C132.421 212.3 129.921 213.467 127.854 215.8C125.787 218.067 124.621 221.2 124.354 225.2H144.154ZM168.153 254C166.353 254 165.453 252.9 165.453 250.7C165.453 249.167 165.986 248 167.053 247.2C168.186 246.4 169.72 246 171.653 246H172.553V191H168.153C166.353 191 165.453 189.9 165.453 187.7C165.453 186.167 165.986 185 167.053 184.2C168.186 183.4 169.72 183 171.653 183H186.553V246.1L189.953 247.9C191.553 248.767 192.62 249.467 193.153 250C193.753 250.533 194.053 251.233 194.053 252.1C194.053 252.767 193.92 253.267 193.653 253.6C193.386 253.867 192.92 254 192.253 254H168.153ZM186.553 228.8L203.453 213.3H197.453C196.52 213.3 195.786 213 195.253 212.4C194.786 211.8 194.553 210.933 194.553 209.8C194.553 208.133 195.153 206.9 196.353 206.1C197.553 205.233 199.153 204.8 201.153 204.8H220.953C222.486 204.8 223.253 205.733 223.253 207.6C223.253 209.533 221.653 211.033 218.453 212.1L215.253 213.2L201.253 226.5L216.953 245.9L221.753 247.6C223.42 248.133 224.62 248.733 225.353 249.4C226.086 250.067 226.453 250.9 226.453 251.9C226.453 252.567 226.32 253.1 226.053 253.5C225.786 253.833 225.286 254 224.553 254H205.553L186.553 228.8ZM244.809 255.5C240.475 255.5 236.775 254.3 233.709 251.9C230.642 249.433 229.109 245.933 229.109 241.4C229.109 236.133 230.975 232.3 234.709 229.9C238.442 227.5 243.275 225.867 249.209 225L259.709 223.4V220.2C259.709 217.667 258.909 215.733 257.309 214.4C255.775 213 253.575 212.3 250.709 212.3C248.975 212.3 247.075 212.567 245.009 213.1C243.009 213.633 241.475 214.233 240.409 214.9L239.309 218.8C238.909 220.267 238.342 221.367 237.609 222.1C236.875 222.833 235.909 223.2 234.709 223.2C233.842 223.2 233.175 223 232.709 222.6C232.309 222.2 232.109 221.667 232.109 221V209.4C235.042 207.733 238.375 206.4 242.109 205.4C245.909 204.333 249.609 203.8 253.209 203.8C259.342 203.8 264.275 205.233 268.009 208.1C271.809 210.967 273.709 215.133 273.709 220.6V246.4L276.709 247.9C278.242 248.633 279.309 249.3 279.909 249.9C280.509 250.5 280.809 251.233 280.809 252.1C280.809 252.767 280.675 253.267 280.409 253.6C280.142 253.867 279.675 254 279.009 254H259.909V249.4H259.509C257.842 251.267 255.675 252.767 253.009 253.9C250.342 254.967 247.609 255.5 244.809 255.5ZM249.209 246.6C252.009 246.6 254.442 245.633 256.509 243.7C258.642 241.767 259.709 239.567 259.709 237.1V231.4L251.709 232.7C245.975 233.7 243.109 236.367 243.109 240.7C243.109 242.433 243.642 243.867 244.709 245C245.775 246.067 247.275 246.6 249.209 246.6ZM304.463 255.5C300.797 255.5 297.13 254.967 293.463 253.9C289.863 252.833 287.063 251.567 285.063 250.1V238.4C285.063 237.733 285.263 237.167 285.663 236.7C286.13 236.233 286.797 236 287.663 236C289.93 236 291.43 237.5 292.163 240.5L293.263 244.6C294.197 245.333 295.563 245.933 297.363 246.4C299.163 246.8 301.063 247 303.063 247C308.463 247 311.163 245.567 311.163 242.7C311.163 241.367 310.597 240.267 309.463 239.4C308.33 238.533 305.997 237.233 302.463 235.5L298.963 233.8C293.83 231.2 290.23 228.8 288.163 226.6C286.097 224.333 285.063 221.433 285.063 217.9C285.063 213.633 286.897 210.233 290.563 207.7C294.23 205.1 298.83 203.8 304.363 203.8C308.163 203.8 311.73 204.433 315.063 205.7C318.397 206.9 321.063 208.3 323.063 209.9V221C323.063 221.667 322.83 222.2 322.363 222.6C321.963 223 321.33 223.2 320.463 223.2C318.197 223.2 316.697 221.733 315.963 218.8L314.763 214.4C312.43 213 309.63 212.3 306.363 212.3C304.163 212.3 302.397 212.7 301.063 213.5C299.73 214.233 299.063 215.367 299.063 216.9C299.063 218.233 299.53 219.267 300.463 220C301.463 220.733 303.697 222 307.163 223.8L312.063 226.3C316.797 228.767 320.163 231.1 322.163 233.3C324.163 235.433 325.163 238.3 325.163 241.9C325.163 246.633 323.163 250.1 319.163 252.3C315.23 254.433 310.33 255.5 304.463 255.5ZM342.648 255.5C340.381 255.5 338.448 254.733 336.848 253.2C335.314 251.667 334.548 249.733 334.548 247.4C334.548 245.067 335.314 243.133 336.848 241.6C338.448 240.067 340.381 239.3 342.648 239.3C344.848 239.3 346.714 240.067 348.248 241.6C349.848 243.133 350.648 245.067 350.648 247.4C350.648 249.733 349.848 251.667 348.248 253.2C346.714 254.733 344.848 255.5 342.648 255.5Z" fill="url(#paint0_linear_15_66)"/>
<defs>
<linearGradient id="paint0_linear_15_66" x1="32.0512" y1="167.818" x2="382.563" y2="167.818" gradientUnits="userSpaceOnUse">
<stop stop-color="white"/>
<stop offset="0.270833" stop-color="#DE24CB"/>
<stop offset="0.557292" stop-color="#1DD9E6"/>
<stop offset="0.885417" stop-color="#00FF85"/>
</linearGradient>
</defs>
</svg>
